{
  "accessors": [
    {
      "bufferView": 0,
      "byteOffset": 0,
      "componentType": 5126,
      "count": 2156,
      "type": "VEC2",
      "max": [
        0.9915311,
        -0.004239505
      ],
      "min": [
        0.005636882,
        -0.994077146
      ]
    },
    {
      "bufferView": 1,
      "byteOffset": 0,
      "componentType": 5126,
      "count": 2156,
      "type": "VEC3",
      "max": [
        1.0,
        1.0,
        0.9943777
      ],
      "min": [
        -1.0,
        -1.0,
        -0.9943777
      ]
    },
    {
      "bufferView": 2,
      "byteOffset": 0,
      "componentType": 5126,
      "count": 2156,
      "type": "VEC3",
      "max": [
        0.09673439,
        0.320718765,
        0.09673401
      ],
      "min": [
        -0.09673393,
        0.0,
        -0.09673423
      ]
    },
    {
      "bufferView": 3,
      "byteOffset": 0,
      "componentType": 5123,
      "count": 9876,
      "type": "SCALAR",
      "max": [
        2155
      ],
      "min": [
        0
      ]
    },
    {
      "bufferView": 4,
      "byteOffset": 0,
      "componentType": 5126,
      "count": 2518,
      "type": "VEC2",
      "max": [
        0.9931404,
        -0.00536990725
      ],
      "min": [
        0.142952234,
        -0.49859795
      ]
    },
    {
      "bufferView": 5,
      "byteOffset": 0,
      "componentType": 5126,
      "count": 2518,
      "type": "VEC3",
      "max": [
        1.0,
        0.956569135,
        1.0
      ],
      "min": [
        -1.0,
        -0.956569,
        -1.0
      ]
    },
    {
      "bufferView": 6,
      "byteOffset": 0,
      "componentType": 5126,
      "count": 2518,
      "type": "VEC3",
      "max": [
        0.05143829,
        0.288371652,
        0.0514381379
      ],
      "min": [
        -0.0514380634,
        0.0323468,
        -0.0514382161
      ]
    },
    {
      "bufferView": 7,
      "byteOffset": 0,
      "componentType": 5123,
      "count": 13248,
      "type": "SCALAR",
      "max": [
        2517
      ],
      "min": [
        0
      ]
    },
    {
      "bufferView": 8,
      "byteOffset": 0,
      "componentType": 5126,
      "count": 957,
      "type": "VEC2",
      "max": [
        0.991261542,
        -0.006689554
      ],
      "min": [
        0.0906246,
        -0.990612864
      ]
    },
    {
      "bufferView": 9,
      "byteOffset": 0,
      "componentType": 5126,
      "count": 957,
      "type": "VEC3",
      "max": [
        0.9999541,
        1.0,
        0.9999541
      ],
      "min": [
        -0.9999541,
        -0.8021131,
        -0.9999541
      ]
    },
    {
      "bufferView": 10,
      "byteOffset": 0,
      "componentType": 5126,
      "count": 957,
      "type": "VEC3",
      "max": [
        0.0475219749,
        0.223281533,
        0.04752183
      ],
      "min": [
        -0.04752179,
        0.0323467255,
        -0.0475219041
      ]
    },
    {
      "bufferView": 11,
      "byteOffset": 0,
      "componentType": 5123,
      "count": 4824,
      "type": "SCALAR",
      "max": [
        956
      ],
      "min": [
        0
      ]
    }
  ],
  "asset": {
    "generator": "glTF Tools for Unity",
    "version": "2.0"
  },
  "bufferViews": [
    {
      "buffer": 0,
      "byteOffset": 0,
      "byteLength": 17248,
      "target": 34962
    },
    {
      "buffer": 0,
      "byteOffset": 17248,
      "byteLength": 25872,
      "target": 34962
    },
    {
      "buffer": 0,
      "byteOffset": 43120,
      "byteLength": 25872,
      "target": 34962
    },
    {
      "buffer": 0,
      "byteOffset": 68992,
      "byteLength": 19752,
      "target": 34963
    },
    {
      "buffer": 0,
      "byteOffset": 88744,
      "byteLength": 20144,
      "target": 34962
    },
    {
      "buffer": 0,
      "byteOffset": 108888,
      "byteLength": 30216,
      "target": 34962
    },
    {
      "buffer": 0,
      "byteOffset": 139104,
      "byteLength": 30216,
      "target": 34962
    },
    {
      "buffer": 0,
      "byteOffset": 169320,
      "byteLength": 26496,
      "target": 34963
    },
    {
      "buffer": 0,
      "byteOffset": 195816,
      "byteLength": 7656,
      "target": 34962
    },
    {
      "buffer": 0,
      "byteOffset": 203472,
      "byteLength": 11484,
      "target": 34962
    },
    {
      "buffer": 0,
      "byteOffset": 214956,
      "byteLength": 11484,
      "target": 34962
    },
    {
      "buffer": 0,
      "byteOffset": 226440,
      "byteLength": 9648,
      "target": 34963
    }
  ],
  "buffers": [
    {
      "uri": "Hourglass.bin",
      "byteLength": 236088
    }
  ],
  "extensionsUsed": [],
  "images": [
    {
      "uri": "Hourglass_baseColor.png"
    },
    {
      "uri": "Hourglass_metallicRoughness.png"
    }
  ],
  "meshes": [
    {
      "primitives": [
        {
          "attributes": {
            "TEXCOORD_0": 0,
            "NORMAL": 1,
            "POSITION": 2
          },
          "indices": 3,
          "material": 0,
          "mode": 4
        }
      ],
      "name": "hourglass_frame"
    },
    {
      "primitives": [
        {
          "attributes": {
            "TEXCOORD_0": 4,
            "NORMAL": 5,
            "POSITION": 6
          },
          "indices": 7,
          "material": 1,
          "mode": 4
        }
      ],
      "name": "hourglass_glass"
    },
    {
      "primitives": [
        {
          "attributes": {
            "TEXCOORD_0": 8,
            "NORMAL": 9,
            "POSITION": 10
          },
          "indices": 11,
          "material": 0,
          "mode": 4
        }
      ],
      "name": "hourglass_sand"
    }
  ],
  "materials": [
    {
      "pbrMetallicRoughness": {
        "baseColorTexture": {
          "index": 0
        },
        "metallicRoughnessTexture": {
          "index": 1
        }
      },
      "name": "9328_hourglass"
    },
    {
      "pbrMetallicRoughness": {
        "baseColorTexture": {
          "index": 0
        },
        "metallicRoughnessTexture": {
          "index": 1
        }
      },
      "alphaMode": "BLEND",
      "name": "9328_hourglass_glass"
    }
  ],
  "nodes": [
    {
      "children": [],
      "mesh": 0,
      "name": "hourglass_frame"
    },
    {
      "children": [],
      "mesh": 1,
      "name": "hourglass_glass"
    },
    {
      "children": [],
      "mesh": 2,
      "name": "hourglass_sand"
    },
    {
      "children": [
        0,
        1,
        2
      ],
      "scale": [
        4.318426,
        4.31842566,
        4.31842566
      ],
      "translation": [
        -7.3546E-08,
        -0.69331,
        3.5587E-08
      ],
      "name": "Hourglass"
    }
  ],
  "samplers": [
    {}
  ],
  "scene": 0,
  "scenes": [
    {
      "nodes": [
        3
      ]
    }
  ],
  "textures": [
    {
      "sampler": 0,
      "source": 0
    },
    {
      "sampler": 0,
      "source": 1
    }
  ]
}