{"accessors":[{"bufferView":0,"byteOffset":0,"componentType":5126,"count":5500,"type":"VEC2","max":[1.0,-0.00603268854],"min":[-0.00138888136,-0.996193647]},{"bufferView":1,"byteOffset":0,"componentType":5126,"count":5500,"type":"VEC3","max":[1.0,1.0,1.0],"min":[-1.0,-1.0,-1.0]},{"bufferView":2,"byteOffset":0,"componentType":5126,"count":5500,"type":"VEC4","max":[1.0,0.9999261,1.0,1.0],"min":[-1.0,-1.0,-1.0,-1.0]},{"bufferView":3,"byteOffset":0,"componentType":5126,"count":5500,"type":"VEC3","max":[0.183281645,0.2029761,0.09592865],"min":[-0.141363442,0.000234274761,-0.07781425]},{"bufferView":4,"byteOffset":0,"componentType":5123,"count":25920,"type":"SCALAR","max":[5499],"min":[0]}],"asset":{"version":"2.0"},"bufferViews":[{"buffer":0,"byteOffset":0,"byteLength":44000,"target":34962},{"buffer":1,"byteOffset":0,"byteLength":66000,"target":34962},{"buffer":2,"byteOffset":0,"byteLength":88000,"target":34962},{"buffer":3,"byteOffset":0,"byteLength":66000,"target":34962},{"buffer":4,"byteOffset":0,"byteLength":51840,"target":34962}],"buffers":[{"uri":"telephone_buffer0.bin","byteLength":44000},{"uri":"telephone_buffer1.bin","byteLength":66000},{"uri":"telephone_buffer2.bin","byteLength":88000},{"uri":"telephone_buffer3.bin","byteLength":66000},{"uri":"telephone_buffer4.bin","byteLength":51840}],"extensionsUsed":["KHR_materials_pbrSpecularGlossiness"],"images":[{"uri":"telephone_image0.png"},{"uri":"telephone_image1.png"},{"uri":"telephone_image2.png"},{"uri":"telephone_image3.png"},{"uri":"telephone_image4.png"},{"uri":"telephone_image5.png"}],"meshes":[{"primitives":[{"attributes":{"TEXCOORD_0":0,"NORMAL":1,"TANGENT":2,"POSITION":3},"indices":4,"material":0,"mode":4}],"name":"curve4"}],"materials":[{"pbrMetallicRoughness":{"baseColorTexture":{"index":0},"metallicRoughnessTexture":{"index":1}},"normalTexture":{"index":2},"occlusionTexture":{"index":3},"name":"telephone_mr","extensions":{"KHR_materials_pbrSpecularGlossiness":{"diffuseTexture":{"index":4},"specularGlossinessTexture":{"index":5}}}}],"nodes":[{"children":[],"mesh":0,"scale":[6.0,6.0,6.0],"translation":[0.0,-0.5,0.0],"name":"telephone"}],"samplers":[{},{},{},{},{},{}],"scene":0,"scenes":[{"nodes":[0]}],"textures":[{"sampler":0,"source":0},{"sampler":1,"source":1},{"sampler":2,"source":2},{"sampler":3,"source":3},{"sampler":4,"source":4},{"sampler":5,"source":5}]}