{
    "accessors": [
        {
            "bufferView": 0,
            "byteOffset": 0,
            "componentType": 5126,
            "count": 2711,
            "type": "VEC2",
            "max": [
                0.9917339,
                -0.0120319128
            ],
            "min": [
                0.0116992,
                -0.9939886
            ]
        },
        {
            "bufferView": 1,
            "byteOffset": 0,
            "componentType": 5126,
            "count": 2711,
            "type": "VEC3",
            "max": [
                0.9999155,
                0.9999615,
                0.9998227
            ],
            "min": [
                -0.9999155,
                -0.9979231,
                -0.9995511
            ]
        },
        {
            "bufferView": 2,
            "byteOffset": 0,
            "componentType": 5126,
            "count": 2711,
            "type": "VEC4",
            "max": [
                0.999956131,
                0.9999571,
                0.999797165,
                1.0
            ],
            "min": [
                -1.0,
                -0.691328,
                -0.999797165,
                -1.0
            ]
        },
        {
            "bufferView": 3,
            "byteOffset": 0,
            "componentType": 5126,
            "count": 2711,
            "type": "VEC4",
            "max": [
                0.0,
                0.0,
                0.0,
                1.0
            ],
            "min": [
                0.0,
                0.0,
                0.0,
                0.0
            ]
        },
        {
            "bufferView": 4,
            "byteOffset": 0,
            "componentType": 5126,
            "count": 2711,
            "type": "VEC3",
            "max": [
                0.008106791,
                0.008187642,
                0.008632781
            ],
            "min": [
                -0.008106791,
                -0.00818764,
                -0.007583367
            ]
        },
        {
            "bufferView": 5,
            "byteOffset": 0,
            "componentType": 5123,
            "count": 14610,
            "type": "SCALAR",
            "max": [
                2710
            ],
            "min": [
                0
            ]
        }
    ],
    "asset": {
        "version": "2.0"
    },
    "bufferViews": [
        {
            "buffer": 0,
            "byteOffset": 0,
            "byteLength": 21688,
            "target": 34962
        },
        {
            "buffer": 1,
            "byteOffset": 0,
            "byteLength": 32532,
            "target": 34962
        },
        {
            "buffer": 2,
            "byteOffset": 0,
            "byteLength": 43376,
            "target": 34962
        },
        {
            "buffer": 3,
            "byteOffset": 0,
            "byteLength": 43376,
            "target": 34962
        },
        {
            "buffer": 4,
            "byteOffset": 0,
            "byteLength": 32532,
            "target": 34962
        },
        {
            "buffer": 5,
            "byteOffset": 0,
            "byteLength": 29220,
            "target": 34962
        }
    ],
    "buffers": [
        {
            "uri": "SmilingFace_buffer0.bin",
            "byteLength": 21688
        },
        {
            "uri": "SmilingFace_buffer1.bin",
            "byteLength": 32532
        },
        {
            "uri": "SmilingFace_buffer2.bin",
            "byteLength": 43376
        },
        {
            "uri": "SmilingFace_buffer3.bin",
            "byteLength": 43376
        },
        {
            "uri": "SmilingFace_buffer4.bin",
            "byteLength": 32532
        },
        {
            "uri": "SmilingFace_buffer5.bin",
            "byteLength": 29220
        }
    ],
    "extensionsUsed": [
        "KHR_materials_pbrSpecularGlossiness"
    ],
    "images": [
        {
            "uri": "SmilingFace_image0.png"
        },
        {
            "uri": "SmilingFace_image1.png"
        },
        {
            "uri": "SmilingFace_image2.png"
        },
        {
            "uri": "SmilingFace_image3.png"
        }
    ],
    "meshes": [
        {
            "primitives": [
                {
                    "attributes": {
                        "TEXCOORD_0": 0,
                        "NORMAL": 1,
                        "TANGENT": 2,
                        "COLOR": 3,
                        "POSITION": 4
                    },
                    "indices": 5,
                    "material": 0,
                    "mode": 4
                }
            ],
            "name": "polySurface168"
        }
    ],
    "materials": [
        {
            "pbrMetallicRoughness": {
                "baseColorTexture": {
                    "index": 0
                },
                "metallicRoughnessTexture": {
                    "index": 1
                }
            },
            "name": "emoji_smiling_DF",
            "extensions": {
                "KHR_materials_pbrSpecularGlossiness": {
                    "diffuseTexture": {
                        "index": 2
                    },
                    "specularFactor": [
                        0.0331047364,
                        0.0331047364,
                        0.0331047364
                    ],
                    "glossinessFactor": 0.5,
                    "specularGlossinessTexture": {
                        "index": 3
                    }
                }
            }
        }
    ],
    "nodes": [
        {
            "children": [],
            "mesh": 0,
            "rotation": [
                0.0,
                0.0,
                0.0,
                1.0
            ],
            "scale": [
                100.0,
                100.0,
                100.0
            ],
            "translation": [
                0.0,
                0.0,
                0.0
            ],
            "name": "SmilingFace"
        }
    ],
    "samplers": [
        {},
        {},
        {},
        {}
    ],
    "scene": 0,
    "scenes": [
        {
            "nodes": [
                0
            ]
        }
    ],
    "textures": [
        {
            "sampler": 0,
            "source": 0
        },
        {
            "sampler": 1,
            "source": 1
        },
        {
            "sampler": 2,
            "source": 2
        },
        {
            "sampler": 3,
            "source": 3
        }
    ]
}