{
    "scenes": [
        {
            "nodes": [ 0 ]
        }
    ],
    "nodes": [
        {
            "mesh": 0,
            "skin": 0
        },
        {
            "children": [ 2 ],
            "translation": [ 0.0, 1.0, 0.0 ]
        },
        {
            "rotation": [ 0.0, 0.0, 0.0, 1.0 ]
        }
    ],
    "skins": [
        {
            "inverseBindMatrices": 4,
            "joints": [ 1, 2 ]
        }
    ],
    "animations": [
        {
            "samplers": [
                {
                    "input": 5,
                    "interpolation": "LINEAR",
                    "output": 6
                }
            ],
            "channels": [
                {
                    "sampler": 0,
                    "target": {
                        "node": 2,
                        "path": "rotation"
                    }
                }
            ]
        }
    ],
    "materials": [
        {
            "doubleSided": true
        }
    ],
    "meshes": [
        {
            "primitives": [
                {
                    "attributes": {
                        "POSITION": 1,
                        "JOINT": 2,
                        "WEIGHT": 3
                    },
                    "indices": 0,
                    "material": 0
                }
            ]
        }
    ],
    "buffers": [
        {
            "uri": "skinGeometry.bin",
            "byteLength": 168
        },
        {
            "uri": "skinningData.bin",
            "byteLength": 320
        },
        {
            "uri": "inverseBindMatrices.bin",
            "byteLength": 128
        },
        {
            "uri": "skinAnimation.bin",
            "byteLength": 240
        }
    ],
    "bufferViews": [
        {
            "buffer": 0,
            "byteOffset": 0,
            "byteLength": 48,
            "target": 34963
        },
        {
            "buffer": 0,
            "byteOffset": 48,
            "byteLength": 120,
            "target": 34962
        },
        {
            "buffer": 1,
            "byteOffset": 0,
            "byteLength": 320,
            "target": 34962
        },
        {
            "buffer": 2,
            "byteOffset": 0,
            "byteLength": 128
        },
        {
            "buffer": 3,
            "byteOffset": 0,
            "byteLength": 240
        }
    ],
    "accessors": [
        {
            "bufferView": 0,
            "byteOffset": 0,
            "componentType": 5123,
            "count": 24,
            "type": "SCALAR",
            "max": [ 9 ],
            "min": [ 0 ]
        },
        {
            "bufferView": 1,
            "byteOffset": 0,
            "componentType": 5126,
            "count": 10,
            "type": "VEC3",
            "max": [ 1.0, 2.0, 0.0 ],
            "min": [ 0.0, 0.0, 0.0 ]
        },
        {
            "bufferView": 2,
            "byteOffset": 0,
            "componentType": 5126,
            "count": 10,
            "type": "VEC4",
            "max": [ 1.0, 1.0, 0.0, 0.0 ],
            "min": [ 0.0, 0.0, 0.0, 0.0 ]
        },
        {
            "bufferView": 2,
            "byteOffset": 160,
            "componentType": 5126,
            "count": 10,
            "type": "VEC4",
            "max": [ 1.0, 1.0, 0.0, 0.0 ],
            "min": [ 0.0, 0.0, 0.0, 0.0 ]
        },
        {
            "bufferView": 3,
            "byteOffset": 0,
            "componentType": 5126,
            "count": 2,
            "type": "MAT4",
            "max": [ 1.0, 0.0, 0.0, 0.0, 0.0, 1.0, 0.0, 0.0, 0.0, 0.0, 1.0, 0.0, 0.0, -1.0, 0.0, 1.0 ],
            "min": [ 1.0, 0.0, 0.0, 0.0, 0.0, 1.0, 0.0, 0.0, 0.0, 0.0, 1.0, 0.0, 0.0, -2.0, 0.0, 1.0 ]
        },
        {
            "bufferView": 4,
            "byteOffset": 0,
            "componentType": 5126,
            "count": 12,
            "type": "SCALAR",
            "max": [ 1.0 ],
            "min": [ 0.0 ]
        },
        {
            "bufferView": 4,
            "byteOffset": 48,
            "componentType": 5126,
            "count": 12,
            "type": "VEC4",
            "max": [ 0.0, 0.0, 0.707, 1.0 ],
            "min": [ 0.0, 0.0, -0.707, -0.707 ]
        }
    ],
    "asset": {
        "version": "2.0"
    }
}
